<?xml version="1.0" encoding="utf-8"?>
<!-- Generator: Adobe Illustrator 22.1.0, SVG Export Plug-In . SVG Version: 6.00 Build 0)  -->
<svg version="1.1" id="Layer_1" xmlns="http://www.w3.org/2000/svg" xmlns:xlink="http://www.w3.org/1999/xlink" x="0px" y="0px"
	 viewBox="0 0 60.6 60.6" style="enable-background:new 0 0 60.6 60.6;" xml:space="preserve">
<style type="text/css">
	.st0{fill-rule:evenodd;clip-rule:evenodd;fill:none;stroke:#FD7021;stroke-miterlimit:10;}
	.st1{fill:none;stroke:#FD7021;stroke-miterlimit:10;}
</style>
<title>Asset 8</title>
<path class="st0" d="M30.3,60.1c16.5,0,29.8-13.3,29.8-29.8c0-16.5-13.3-29.8-29.8-29.8C13.8,0.5,0.5,13.8,0.5,30.3
	C0.5,46.8,13.8,60.1,30.3,60.1"/>
<g>
	<path class="st1" d="M43.5,20.9c0.7-0.2,1.3-0.2,2,0.1c0.6,0.3,1.1,0.8,1.3,1.5c0.2,0.7,0.2,1.3-0.1,2c-0.3,0.6-0.8,1.1-1.5,1.3
		l2.4,7.3c0.2,0.7,0.2,1.3-0.2,2c-0.3,0.6-0.8,1.1-1.5,1.3C39.1,33.7,33.2,33,28,34.3c-0.7,0.5-1.1,1.1-1.3,1.8
		c-0.2,0.7-0.2,1.4,0,2.1c0.3,0.7,0.7,1.2,1.3,1.5c-0.1,0.5-0.1,1,0,1.4c0.1,0.4,0.3,0.8,0.5,1.1c0.2,0.3,0.6,0.6,1,0.8
		c0.4,0.3,0.8,0.5,1.2,0.6c0.4,0.2,0.9,0.4,1.5,0.6c-0.1,0.9-0.7,1.6-1.6,2.3c-0.9,0.7-2,1.1-3.1,1.3c-1.2,0.2-2.1,0.1-2.9-0.2
		c-0.2-0.3-0.6-0.8-1.1-1.5c-0.6-0.7-1-1.3-1.2-1.6c-0.2-0.3-0.6-0.9-1-1.5c-0.4-0.7-0.7-1.3-0.9-1.8c-0.2-0.5-0.4-1.2-0.6-1.9
		c-0.2-0.7-0.3-1.5-0.3-2.2l-2.3,0.8c-0.8,0.3-1.7,0.2-2.5-0.2c-0.8-0.4-1.3-1-1.6-1.9L12,32.1c-0.3-0.8-0.2-1.7,0.2-2.5
		c0.4-0.8,1-1.3,1.9-1.6l9.1-3c5.5-1.8,10.4-6.2,14.6-13c0.7-0.2,1.3-0.2,2,0.2c0.6,0.3,1.1,0.8,1.3,1.5L43.5,20.9z M44.9,33.2
		l-6.1-18.2c-3.7,5.5-7.9,9.3-12.5,11.4l1.7,5.1C33,30.5,38.6,31.1,44.9,33.2z"/>
</g>
</svg>
