<svg xmlns="http://www.w3.org/2000/svg" viewBox="0 0 60.6 60.6"><defs><style>.cls-1{fill:none;stroke:#f60;stroke-miterlimit:10;}</style></defs><title>Asset 9</title><g id="Layer_2" data-name="Layer 2"><g id="Layer_1-2" data-name="Layer 1"><circle class="cls-1" cx="30.3" cy="30.3" r="29.8"/><path class="cls-1" d="M28.1,11.45V25a4.67,4.67,0,0,1-.6,2.35A3.32,3.32,0,0,1,26,28.87V47.79a3,3,0,0,1-.64,1.91,1.87,1.87,0,0,1-1.51.81H21.65a1.86,1.86,0,0,1-1.5-.81,3,3,0,0,1-.64-1.91V28.87A3.32,3.32,0,0,1,18,27.38a4.67,4.67,0,0,1-.6-2.35V11.45a1.49,1.49,0,0,1,.32-.95.94.94,0,0,1,.76-.41,1,1,0,0,1,.75.41,1.49,1.49,0,0,1,.32.95v8.83a1.46,1.46,0,0,0,.32.95.92.92,0,0,0,.75.4.94.94,0,0,0,.76-.4,1.51,1.51,0,0,0,.31-.95V11.45A1.49,1.49,0,0,1,22,10.5a1,1,0,0,1,.76-.41.93.93,0,0,1,.75.41,1.44,1.44,0,0,1,.32.95v8.83a1.51,1.51,0,0,0,.32.95,1,1,0,0,0,.76.4.92.92,0,0,0,.75-.4,1.46,1.46,0,0,0,.32-.95V11.45a1.49,1.49,0,0,1,.32-.95.9.9,0,0,1,1.51,0A1.49,1.49,0,0,1,28.1,11.45Zm14.56,0V47.79A3,3,0,0,1,42,49.7a1.87,1.87,0,0,1-1.51.81H38.36a1.89,1.89,0,0,1-1.51-.81,3,3,0,0,1-.64-1.91V28.93H32.46a.44.44,0,0,1-.38-.2.71.71,0,0,1-.16-.48V16.88a7.45,7.45,0,0,1,1.58-4.79,4.7,4.7,0,0,1,3.79-2h4.29a.94.94,0,0,1,.76.41A1.49,1.49,0,0,1,42.66,11.45Z"/></g></g></svg>