<svg xmlns="http://www.w3.org/2000/svg" viewBox="0 0 60.6 60.6"><defs><style>.cls-1{fill:none;stroke:#f60;stroke-miterlimit:10;}</style></defs><title>Asset 4</title><g id="Layer_2" data-name="Layer 2"><g id="Layer_1-2" data-name="Layer 1"><path class="cls-1" d="M41.65,42.58H19a2.69,2.69,0,0,1-2.7-2.7v-16a2.69,2.69,0,0,1,2.7-2.7h22.6a2.69,2.69,0,0,1,2.7,2.7v16A2.67,2.67,0,0,1,41.65,42.58Z"/><polygon class="cls-1" points="37.45 29.58 32.55 29.58 32.55 24.78 28.05 24.78 28.05 29.58 23.15 29.58 23.15 34.18 28.05 34.18 28.05 38.98 32.55 38.98 32.55 34.18 37.45 34.18 37.45 29.58"/><path class="cls-1" d="M35.45,21.18a5.14,5.14,0,0,0-10.2-.9c0,.3-.1.6-.1.9Z"/><circle class="cls-1" cx="30.3" cy="30.3" r="29.8"/></g></g></svg>