<?xml version="1.0" encoding="utf-8"?>
<!-- Generator: Adobe Illustrator 22.1.0, SVG Export Plug-In . SVG Version: 6.00 Build 0)  -->
<svg version="1.1" id="Layer_1" xmlns="http://www.w3.org/2000/svg" xmlns:xlink="http://www.w3.org/1999/xlink" x="0px" y="0px"
	 viewBox="0 0 60.6 60.6" style="enable-background:new 0 0 60.6 60.6;" xml:space="preserve">
<style type="text/css">
	.st0{fill-rule:evenodd;clip-rule:evenodd;fill:none;stroke:#FD7021;stroke-miterlimit:10;}
</style>
<title>Asset 8</title>
<path class="st0" d="M30.3,60.1c16.5,0,29.8-13.3,29.8-29.8c0-16.5-13.3-29.8-29.8-29.8C13.8,0.5,0.5,13.8,0.5,30.3
	C0.5,46.8,13.8,60.1,30.3,60.1"/>
<path class="st0" d="M21.1,24.3c0.2,0.1,0.3,0.2,0.5,0.2c3.5,1.7,7,3.4,10.5,5.2c1.3,0.6,1.5,2.2,0.4,3.1c-0.6,0.5-1.3,0.5-2,0.2
	c-2.3-1.1-4.6-2.3-6.9-3.4c-0.2-0.1-0.3-0.2-0.5-0.3c-0.1,0.1-0.2,0.3-0.2,0.4c0.1,0.1,0.2,0.1,0.3,0.2c3,1.5,6,2.9,9,4.4
	c0.9,0.5,1.3,1.5,0.9,2.4c-0.4,1-1.5,1.4-2.5,0.9c-2.9-1.4-5.9-2.9-8.8-4.3c-0.2-0.1-0.3-0.2-0.5-0.3c-0.1,0.2-0.1,0.3-0.2,0.5
	c0.2,0.1,0.3,0.2,0.5,0.2c2.3,1.2,4.7,2.3,7,3.5c1.2,0.6,1.4,2.3,0.3,3.1c-0.6,0.4-1.3,0.4-1.9,0.1c-2.3-1.1-4.6-2.3-6.9-3.4
	c-0.2-0.1-0.3-0.2-0.5-0.3c-0.1,0.2-0.1,0.3-0.2,0.5c1.3,0.6,2.6,1.3,3.9,1.9c1.2,0.6,1.4,2.2,0.3,3c-0.5,0.4-1.2,0.5-1.8,0.2
	C19,41,16.5,39.8,14,38.5c-1.3-0.7-2.4-1.7-3.5-2.5c-0.7-0.5-1.4-0.9-2-1.5c-2.8-3-0.9-11.5,5.8-13.2c3.2-0.6,6.5-1.2,9.7-1.8
	c1.1-0.2,1.9,0.2,2.3,1.1c0.4,0.8,0.3,1.8-0.4,2.4c-0.3,0.3-0.7,0.4-1.1,0.5c-1.3,0.3-2.5,0.5-3.8,0.8
	C21.1,24.2,21.1,24.3,21.1,24.3z M52.1,34.5c-0.6,0.6-1.3,1-2,1.5c-1.2,0.9-2.3,1.8-3.5,2.5c-2.5,1.3-5,2.5-7.5,3.7
	c-0.6,0.3-1.2,0.2-1.8-0.2c-1.1-0.8-0.9-2.4,0.3-3c1.3-0.6,2.6-1.3,3.9-1.9c-0.1-0.2-0.1-0.3-0.2-0.5c-0.2,0.1-0.4,0.2-0.5,0.3
	c-2.3,1.1-4.6,2.3-6.9,3.4c-0.7,0.3-1.3,0.3-1.9-0.1c-0.1-0.1-0.2-0.2-0.3-0.3c0.1-0.1,0.2-0.1,0.4-0.1c2.2-0.3,3.5-2.2,3.3-4.2
	c1.3-0.6,2.6-1.3,3.9-1.9c0.2-0.1,0.3-0.2,0.5-0.2c-0.1-0.2-0.1-0.3-0.2-0.5c-0.2,0.1-0.4,0.2-0.5,0.3c-1.3,0.6-2.5,1.2-3.8,1.8
	c-0.1-0.4-0.2-0.7-0.4-1.1c-0.2-0.3-0.1-0.4,0-0.7c0.4-0.7,0.6-1.5,0.5-2.3c0.8-0.4,1.5-0.8,2.3-1.1c0.1-0.1,0.2-0.1,0.3-0.2
	c-0.1-0.1-0.1-0.3-0.2-0.4c-0.2,0.1-0.4,0.2-0.5,0.3c-0.7,0.3-1.3,0.6-1.9,1c-0.2-1.1-1-2.1-2.2-2.6c-0.1,0-0.2-0.1-0.3-0.1
	c2.1-1.1,4.3-2.1,6.4-3.1c0.2-0.1,0.3-0.2,0.5-0.2c0,0,0-0.1,0-0.1c-1.3-0.2-2.5-0.5-3.8-0.8c-0.4-0.1-0.8-0.3-1.1-0.5
	c-0.7-0.6-0.8-1.6-0.4-2.4c0.4-0.9,1.3-1.3,2.3-1.1c3.2,0.6,6.5,1.2,9.7,1.8C53,23,54.8,31.5,52.1,34.5z"/>
</svg>
