<?xml version="1.0" encoding="utf-8"?>
<!-- Generator: Adobe Illustrator 22.1.0, SVG Export Plug-In . SVG Version: 6.00 Build 0)  -->
<svg version="1.1" id="Layer_1" xmlns="http://www.w3.org/2000/svg" xmlns:xlink="http://www.w3.org/1999/xlink" x="0px" y="0px"
	 viewBox="0 0 60.6 60.6" style="enable-background:new 0 0 60.6 60.6;" xml:space="preserve">
<style type="text/css">
	.st0{fill:none;stroke:#FD7021;stroke-miterlimit:10;}
</style>
<title>Asset 8</title>
<path class="st0" d="M60,30.2C60,13.9,46.7,0.6,30.4,0.6C14,0.6,0.7,13.9,0.7,30.2c0,16.4,13.3,29.6,29.6,29.6
	C46.7,59.9,60,46.6,60,30.2"/>
<path class="st0" d="M49.8,30.2c0,0.5-0.1,1.1-0.4,1.7c-2,3.7-4.7,6.7-8.2,8.9c-3.4,2.2-7,3.3-10.8,3.3c-3.8,0-7.4-1.1-10.8-3.4
	c-3.4-2.2-6.1-5.2-8.2-8.9c-0.3-0.6-0.4-1.1-0.4-1.7c0-0.5,0.1-1.1,0.4-1.7c2-3.7,4.7-6.6,8.2-8.9c3.4-2.2,7-3.4,10.8-3.4
	c3.8,0,7.4,1.1,10.8,3.4c3.4,2.2,6.1,5.2,8.2,8.9C49.7,29.1,49.8,29.7,49.8,30.2z M47,30.2c-2.2-3.8-5-6.6-8.3-8.5
	c0.9,1.7,1.3,3.5,1.3,5.4c0,3-1,5.5-2.9,7.6c-1.9,2.1-4.2,3.2-6.9,3.2c-2.7,0-5-1.1-6.9-3.2c-1.9-2.1-2.9-4.7-2.9-7.6
	c0-1.9,0.4-3.8,1.3-5.4c-3.3,1.9-6.1,4.7-8.3,8.5c1.9,3.3,4.3,5.9,7.2,7.9c2.9,2,6,2.9,9.4,2.9c3.4,0,6.5-1,9.4-2.9
	C42.7,36.2,45.1,33.5,47,30.2z M31.1,21.8c0.2-0.2,0.3-0.5,0.3-0.8c0-0.3-0.1-0.6-0.3-0.8c-0.2-0.2-0.4-0.3-0.7-0.3
	c-1.8,0-3.4,0.7-4.7,2.2c-1.3,1.4-1.9,3.2-1.9,5.2c0,0.3,0.1,0.6,0.3,0.8c0.2,0.2,0.4,0.3,0.7,0.3c0.3,0,0.5-0.1,0.7-0.3
	s0.3-0.5,0.3-0.8c0-1.4,0.4-2.6,1.3-3.5c0.9-1,1.9-1.5,3.2-1.5C30.7,22.1,30.9,22,31.1,21.8z"/>
</svg>
