<?xml version="1.0" encoding="utf-8"?>
<!-- Generator: Adobe Illustrator 22.1.0, SVG Export Plug-In . SVG Version: 6.00 Build 0)  -->
<svg version="1.1" id="Layer_1" xmlns="http://www.w3.org/2000/svg" xmlns:xlink="http://www.w3.org/1999/xlink" x="0px" y="0px"
	 viewBox="0 0 60.6 60.6" style="enable-background:new 0 0 60.6 60.6;" xml:space="preserve">
<style type="text/css">
	.st0{fill-rule:evenodd;clip-rule:evenodd;fill:none;stroke:#FD7021;stroke-miterlimit:10;}
	.st1{fill:none;stroke:#FD7021;stroke-miterlimit:10;}
	.st2{fill:#FFFFFF;stroke:#FD7021;stroke-miterlimit:10;}
</style>
<title>Asset 8</title>
<path class="st0" d="M30.3,60.1c16.5,0,29.8-13.3,29.8-29.8c0-16.5-13.3-29.8-29.8-29.8C13.8,0.5,0.5,13.8,0.5,30.3
	C0.5,46.8,13.8,60.1,30.3,60.1"/>
<polygon class="st1" points="27.7,11.5 42.5,18.3 42.5,20.5 12.8,20.5 12.8,18.3 "/>
<g>
	<path class="st1" d="M34.9,26.1c0.6-0.6,1.4-0.8,2.3-0.6l1.3,0.4l0-0.2v-3.5h-4v4.3C34.7,26.3,34.8,26.2,34.9,26.1z"/>
	<path class="st1" d="M31.7,38.1c-0.2-0.9,0-1.7,0.6-2.3l0.2-0.2v-1.4l-0.3-0.3c-0.6-0.6-0.8-1.4-0.6-2.2c0.2-0.6,0.5-1,0.9-1.3
		v-8.1h-4v14.7h-2V22.2h-4v14.7h-2V22.2h-4v14.7h-0.9c-0.3,0-0.5,0.1-0.8,0.3c-0.2,0.2-0.3,0.5-0.3,0.8v1.1h17.5
		C32.1,38.8,31.9,38.5,31.7,38.1z"/>
</g>
<path class="st2" d="M52,34.8l1.9,1.8c0.3,0.3,0.4,0.6,0.3,1c-0.1,0.4-0.3,0.6-0.7,0.7L50.9,39l0.7,2.5c0.1,0.4,0,0.7-0.3,1
	c-0.3,0.3-0.6,0.4-1,0.3L47.9,42l-0.7,2.6c-0.1,0.4-0.3,0.6-0.7,0.7c-0.1,0-0.2,0-0.3,0c-0.3,0-0.5-0.1-0.7-0.3l-1.8-1.9L41.8,45
	c-0.3,0.3-0.6,0.4-1,0.3c-0.4-0.1-0.6-0.3-0.7-0.7L39.5,42L37,42.7c-0.4,0.1-0.7,0-1-0.3c-0.3-0.3-0.4-0.6-0.3-1l0.7-2.5l-2.6-0.7
	c-0.4-0.1-0.6-0.3-0.7-0.7c-0.1-0.4,0-0.7,0.3-1l1.9-1.8L33.5,33c-0.3-0.3-0.4-0.6-0.3-1c0.1-0.4,0.3-0.6,0.7-0.7l2.6-0.7l-0.7-2.5
	c-0.1-0.4,0-0.7,0.3-1c0.3-0.3,0.6-0.4,1-0.3l2.5,0.7l0.7-2.6c0.1-0.4,0.3-0.6,0.7-0.7c0.4-0.1,0.7,0,1,0.3l1.8,1.9l1.8-1.9
	c0.3-0.3,0.6-0.4,1-0.3c0.4,0.1,0.6,0.3,0.7,0.7l0.7,2.6l2.5-0.7c0.4-0.1,0.7,0,1,0.3c0.3,0.3,0.4,0.6,0.3,1l-0.7,2.5l2.6,0.7
	c0.4,0.1,0.6,0.3,0.7,0.7c0.1,0.4,0,0.7-0.3,1L52,34.8z M47.1,36.3c-0.1-0.2-0.1-0.4-0.2-0.6c-0.1-0.2-0.2-0.3-0.4-0.5
	c-0.2-0.2-0.3-0.3-0.5-0.4c-0.1-0.1-0.3-0.2-0.6-0.3c-0.2-0.1-0.4-0.2-0.6-0.3c-0.1-0.1-0.3-0.1-0.6-0.2c-0.2-0.1-0.4-0.2-0.5-0.2
	c-0.1,0-0.3-0.1-0.5-0.2c-0.2-0.1-0.3-0.2-0.4-0.2c-0.1-0.1-0.2-0.1-0.3-0.2c-0.1-0.1-0.2-0.2-0.2-0.3c0-0.1-0.1-0.2-0.1-0.4
	c0-0.3,0.1-0.6,0.5-0.8c0.3-0.2,0.7-0.3,1.2-0.3c0.2,0,0.4,0,0.6,0.1c0.2,0.1,0.4,0.1,0.6,0.2c0.2,0.1,0.3,0.2,0.4,0.2
	c0.1,0.1,0.2,0.2,0.3,0.2c0.1,0,0.1,0.1,0.1,0.1c0.1,0,0.1,0.1,0.2,0.1c0.1,0,0.1,0,0.2-0.1l0.6-1.1c0.1-0.1,0-0.2,0-0.3
	c0,0-0.1-0.1-0.1-0.1c0,0-0.1-0.1-0.3-0.2c-0.2-0.1-0.3-0.2-0.5-0.3c-0.2-0.1-0.4-0.2-0.7-0.3c-0.3-0.1-0.5-0.1-0.8-0.2v-1.3
	c0-0.1,0-0.1-0.1-0.2c0,0-0.1-0.1-0.2-0.1h-1c-0.1,0-0.1,0-0.2,0.1c0,0-0.1,0.1-0.1,0.2v1.4c-0.8,0.1-1.4,0.5-1.9,1
	c-0.5,0.5-0.7,1.1-0.7,1.8c0,0.2,0,0.4,0.1,0.6c0,0.2,0.1,0.4,0.2,0.5c0.1,0.1,0.1,0.3,0.3,0.4c0.1,0.1,0.2,0.3,0.3,0.4
	c0.1,0.1,0.2,0.2,0.4,0.3c0.2,0.1,0.3,0.2,0.4,0.3c0.1,0.1,0.3,0.1,0.5,0.2c0.2,0.1,0.4,0.2,0.5,0.2c0.1,0,0.3,0.1,0.5,0.2
	c0.3,0.1,0.5,0.2,0.6,0.2c0.1,0.1,0.3,0.1,0.5,0.2c0.2,0.1,0.3,0.2,0.4,0.3c0.1,0.1,0.2,0.2,0.3,0.3c0.1,0.1,0.1,0.3,0.1,0.4
	c0,0.4-0.2,0.7-0.5,0.9c-0.3,0.2-0.7,0.3-1.1,0.3c-0.2,0-0.4,0-0.6-0.1c-0.7-0.1-1.3-0.4-1.8-0.9l0,0c0-0.1-0.1-0.1-0.2-0.1
	c-0.1,0-0.1,0-0.2,0.1l-0.8,1c-0.1,0.1-0.1,0.2,0,0.3c0,0,0.1,0.1,0.1,0.1c0.1,0.1,0.2,0.2,0.3,0.3c0.2,0.1,0.4,0.2,0.6,0.4
	c0.2,0.1,0.5,0.2,0.8,0.3c0.3,0.1,0.6,0.2,1,0.2v1.3c0,0.1,0,0.1,0.1,0.2c0,0,0.1,0.1,0.2,0.1h1c0.1,0,0.1,0,0.2-0.1
	c0,0,0.1-0.1,0.1-0.2V40c0.8-0.1,1.4-0.5,1.9-1c0.5-0.6,0.7-1.2,0.7-2C47.2,36.7,47.2,36.5,47.1,36.3z"/>
</svg>
