<?xml version="1.0" encoding="utf-8"?>
<!-- Generator: Adobe Illustrator 22.1.0, SVG Export Plug-In . SVG Version: 6.00 Build 0)  -->
<svg version="1.1" id="Layer_1" xmlns="http://www.w3.org/2000/svg" xmlns:xlink="http://www.w3.org/1999/xlink" x="0px" y="0px"
	 viewBox="0 0 60.6 60.6" style="enable-background:new 0 0 60.6 60.6;" xml:space="preserve">
<style type="text/css">
	.st0{fill:none;stroke:#FD7021;stroke-miterlimit:10;}
	.st1{fill-rule:evenodd;clip-rule:evenodd;fill:none;stroke:#FD7021;stroke-miterlimit:10;}
</style>
<title>Asset 8</title>
<path class="st0" d="M32.6,47c0.6-0.2,1.2-0.7,0.9-2.1c-0.7-3.9-0.8-7.4,0.2-8.3c0.8-0.7,1.4,0.1,1.4,1.1c0.1,0.8,0.8,9.3,1.5,17.1
	c4.8-1.2,9.1-3.9,12.4-7.5l-0.6-7.7c-0.3-3.4,0.5-7.6,1.1-9.6c0.6-2.1,2.6-12,2.6-12c0.2-0.9-0.6-1.9-1.4-2.1
	c-0.6-0.2-2-0.2-2.6,1.5c-0.7,2.1-2.5,8.4-2.5,8.4c-0.8,2.2-2.8,3.3-4.3,3.4c-1.4,0.1-3.2,0.2-3.2,0.2c-1.8,0.1-5.8,0.6-7.9,4
	c-2.1,3.5-1.5,9.8-0.3,12.1C30.9,47.4,32,47.2,32.6,47z"/>
<path class="st0" d="M12.1,32.4c0.5,1.4,1.2,2.8,1.5,7.3c0.1,1.2,0.4,8.6,0.5,10.1c3.7,3.1,8.4,5.2,13.5,5.8l-1-17
	c-0.2-3.4,0.5-7,1.1-9.1c0.7-2,3-12.4,3-12.4c0.2-0.9-0.6-1.9-1.3-2.1c-0.6-0.2-2-0.2-2.6,1.5c-0.8,2.1-2.7,8.4-2.7,8.4
	c-0.9,2.2-2.8,3.3-4.3,3.3c-0.8,0-2.2,0.4-3.8-0.4c-1.5-0.7-3.4-2.4-3.4-5.2c0-1.1,0.3-5,0.4-6c0.1-1-0.5-1.5-1.1-1.7
	c-0.6-0.2-1.9,0-2.3,0.9c-0.4,0.9-1.4,6-0.9,10C9.1,28.8,11.7,31.3,12.1,32.4z"/>
<path class="st1" d="M30.3,60.1c16.5,0,29.8-13.3,29.8-29.8c0-16.5-13.3-29.8-29.8-29.8C13.8,0.5,0.5,13.8,0.5,30.3
	C0.5,46.8,13.8,60.1,30.3,60.1"/>
<path class="st0" d="M13.9,22c-0.2-2.7,1.8-5,4.4-5.2c2.6-0.1,4.8,1.9,5,4.6c0.2,2.7-1.8,5-4.4,5.2C16.3,26.8,14,24.7,13.9,22"/>
<path class="st0" d="M44.4,21.3c0.2-0.3,0.3-0.7,0.1-1.1l-0.9-2.9c-0.2-0.7-2.8-1.9-3.5-1.7l-1.4,0.5v0c-0.1-0.3-0.4-0.5-0.6-0.4
	l-0.7,0.2c-0.3,0.1-0.4,0.4-0.3,0.7l-1.4,0.5c-0.7,0.2-2.1,2.7-1.8,3.4l0.9,2.9l-3.9,1.3c-0.4,0.1-0.6,0.5-0.5,0.9
	c0.1,0.4,0.5,0.5,0.9,0.4l4.3-1.4c0.6,2,2.4,3.4,4.5,3.4c2.6,0,4.7-2.2,4.7-4.9C44.7,22.4,44.6,21.8,44.4,21.3z"/>
</svg>
