<svg xmlns="http://www.w3.org/2000/svg" viewBox="0 0 60.6 60.6"><defs><style>.cls-1{fill:none;stroke:#f60;stroke-miterlimit:10;}</style></defs><title>Asset 2</title><g id="Layer_2" data-name="Layer 2"><g id="Layer_1-2" data-name="Layer 1"><path class="cls-1" d="M38.15,19.55a8.08,8.08,0,0,0-7.6,5.5.38.38,0,0,1-.7,0,7.94,7.94,0,0,0-15.5,2.4c0,8.4,15.7,17.6,15.7,17.6h.2S46,35.85,46,27.45A7.71,7.71,0,0,0,38.15,19.55Z"/><path class="cls-1" d="M30.25,35.05a3.3,3.3,0,1,0-3.3-3.3A3.4,3.4,0,0,0,30.25,35.05Z"/><path class="cls-1" d="M39.05,33a1.55,1.55,0,0,0-2.1-.1l-3,2.8h0a5.33,5.33,0,0,1-7.2,0h0l-3.1-2.8a1.49,1.49,0,0,0-2,2.2l4.7,4.2h0l.1.1v3.2c2.2,1.5,3.8,2.4,3.8,2.4h0a36.17,36.17,0,0,0,3.9-2.5v-3.2a1.76,1.76,0,0,0,.5-.4l4-3.6c.2-.3.5-.5.7-.8A1.46,1.46,0,0,0,39.05,33Z"/><circle class="cls-1" cx="30.3" cy="30.3" r="29.8"/></g></g></svg>