<?xml version="1.0" encoding="utf-8"?>
<!-- Generator: Adobe Illustrator 22.1.0, SVG Export Plug-In . SVG Version: 6.00 Build 0)  -->
<svg version="1.1" id="Layer_1" xmlns="http://www.w3.org/2000/svg" xmlns:xlink="http://www.w3.org/1999/xlink" x="0px" y="0px"
	 viewBox="0 0 60.6 60.6" style="enable-background:new 0 0 60.6 60.6;" xml:space="preserve">
<style type="text/css">
	.st0{fill-rule:evenodd;clip-rule:evenodd;fill:none;stroke:#FD7021;stroke-miterlimit:10;}
	.st1{fill:none;stroke:#FD7021;stroke-miterlimit:10;}
</style>
<title>Asset 8</title>
<path class="st0" d="M30.3,60.1c16.5,0,29.8-13.3,29.8-29.8c0-16.5-13.3-29.8-29.8-29.8C13.8,0.5,0.5,13.8,0.5,30.3
	C0.5,46.8,13.8,60.1,30.3,60.1"/>
<g>
	<g>
		<path class="st0" d="M30.4,24.5c1.7,0,3.1,1.4,3.1,3.1c0,1.7-1.4,3.1-3.1,3.1c-1.7,0-3.1-1.4-3.1-3.1
			C27.3,25.9,28.7,24.5,30.4,24.5L30.4,24.5L30.4,24.5z"/>
	</g>
	<path class="st1" d="M20.1,15.2c0-1.8-1.4-3.2-3-3.2c-1.7,0-3,1.4-3,3.2c0,1.7,1.4,3.2,3,3.2C18.7,18.4,20.1,16.9,20.1,15.2"/>
	<path class="st1" d="M47.1,16.8c0-1.8-1.4-3.2-3-3.2c-1.7,0-3,1.4-3,3.2s1.4,3.2,3,3.2C45.7,20,47.1,18.5,47.1,16.8"/>
	<path class="st1" d="M30.7,41v5.9c0,0.2,0,0.4,0.1,0.6c0.1,0.2,0.2,0.3,0.3,0.5c0.2,0.2,0.3,0.3,0.5,0.3c0.2,0.1,0.4,0.1,0.6,0.1
		c0.2,0,0.4,0,0.6-0.1c0.2-0.1,0.3-0.2,0.5-0.3c0.1-0.2,0.3-0.3,0.3-0.5c0.1-0.2,0.1-0.4,0.1-0.6c0,0,0-10.9,0-11.5
		c0-0.3,0.2-0.2,0.4,0.1c0.3,0.7,1.2,2.4,1.6,3.3c0.2,0.5,0.9,0.6,1.4,0.4c0.4-0.2,0.7-0.8,0.4-1.3c-0.2-0.4-1-2.1-1.4-3
		c-0.5-1-1.2-2.5-2-3c-0.9-0.5-3.4-0.4-3.9-0.4s-3-0.1-3.9,0.4c-0.8,0.5-1.5,2-2,3c-0.4,0.9-1.2,2.6-1.4,3c-0.2,0.5,0,1.1,0.4,1.3
		c0.5,0.2,1.2,0.1,1.4-0.4c0.4-0.9,1.3-2.6,1.6-3.3c0.1-0.3,0.4-0.4,0.4-0.1c0,0.6,0,11.5,0,11.5c0,0.2,0,0.4,0.1,0.6
		c0.1,0.2,0.2,0.3,0.3,0.5c0.2,0.2,0.3,0.3,0.5,0.3c0.2,0.1,0.4,0.1,0.6,0.1c0.2,0,0.4,0,0.6-0.1c0.2-0.1,0.3-0.2,0.5-0.3
		c0.2-0.2,0.3-0.3,0.3-0.5c0.1-0.2,0.1-0.4,0.1-0.6V41H30.7z"/>
	<path class="st1" d="M20.8,25.9c0,0.9,0,6.1,0,11.1c0,5,0,9.8,0,9.8c0,0.5-0.2,0.9-0.5,1.3c-0.3,0.3-0.7,0.5-1.2,0.5
		c-0.5,0-0.9-0.2-1.2-0.5c-0.3-0.3-0.5-0.8-0.5-1.3l0-11.8h-0.7l0,11.8c0,0.5-0.2,0.9-0.5,1.3c-0.3,0.3-0.7,0.5-1.2,0.5
		c-0.5,0-0.9-0.2-1.2-0.5c-0.3-0.3-0.5-0.8-0.5-1.3c0,0,0-4.8,0-9.8c0-5,0-10.2,0-11.1c0-0.7-0.1-0.9-0.2-0.8
		c-0.1,0.1-0.2,0.4-0.4,0.7c0,0-1.9,5-2.4,6.3c-0.5,1.1-1.3,1-1.7,0.9c-0.5-0.2-0.9-0.8-0.8-1.4c0,0,1.9-5.9,2.7-7.8
		c0.5-1.4,1.1-2.6,1.9-3.3c0.8-0.8,1.7-1.2,2.9-1.2h1.8h1.7c8.4,0.2,15.4,1.5,23.3,1.5l1.8,0l1.8,0c1.7,0,3.3,1.3,3.9,2.5l3.2,8.3
		c0.2,0.6-0.3,1.2-0.8,1.4c-0.4,0.1-1.3,0.2-1.7-0.9c-0.6-1.3-1.9-5.2-1.9-5.2c-0.1-0.3-0.3-0.7-0.4-0.7c-0.1-0.1-0.2,0.1-0.2,0.8
		c0,5.7,1.5,11.8,1.5,11.8l-1.6,0c0,3.6,0,8.1,0,8.1c0,0.5-0.2,0.9-0.5,1.3c-0.3,0.3-0.7,0.5-1.2,0.5c-0.5,0-0.9-0.2-1.2-0.5
		c-0.3-0.3-0.5-0.8-0.5-1.3l0-8h-0.8l0,8c0,0.5-0.2,0.9-0.5,1.3c-0.3,0.3-0.7,0.5-1.2,0.5c-0.5,0-0.9-0.2-1.2-0.5
		c-0.3-0.3-0.5-0.8-0.5-1.3c0,0,0-4.4,0-8.1l-1.6,0c0,0,1.5-6.2,1.5-11.8c0-0.9,0-1.4-0.4-1.8c-0.6-0.7-4-1.4-7.7-2
		c-3.2-0.5-6.6-0.5-8.4-0.1C21.6,23.4,21,24,20.8,25.9z"/>
</g>
</svg>
