<svg xmlns="http://www.w3.org/2000/svg" viewBox="0 0 554.58 554.58"><defs><style>.cls-1{fill:#ff6b00;}.cls-2,.cls-3{stroke:#ff6b00;stroke-miterlimit:10;stroke-width:7px;}.cls-3{fill:none;}</style></defs><g id="Layer_2" data-name="Layer 2"><g id="Layer_1-2" data-name="Layer 1"><path class="cls-1" d="M366.21,403c-1.2,0-2.39-.05-3.6-.14-23.51-1.88-43.23-19.55-46.89-42-3.89-23.83,8.9-46,31.8-55.13,3.57-1.43,4.71-3.12,4.68-7-.16-18.32-.15-36.94-.14-54.94v-14.2c0-14.9,0-26.55-.07-37.66,0-15.39-.09-29.93,0-50.67,0-5.22,1.51-9.46,4.32-12.26a12.31,12.31,0,0,1,8.89-3.49h.07c9.26,0,13.38,3.5,13.42,23.93l-7,0c0-8.47-.75-13.82-2.17-15.91-.6-.88-1.2-1-4.24-1h0a5.41,5.41,0,0,0-4,1.46c-1.45,1.44-2.25,4-2.26,7.3-.05,20.73,0,35.26,0,50.64,0,11.12.07,22.77.07,37.68v14.2c0,18,0,36.59.14,54.88.05,6.74-2.83,11-9.08,13.54-20.1,8-30.89,26.67-27.49,47.5,3.15,19.34,20.2,34.55,40.54,36.17,19.74,1.58,39.12-13.08,44.09-33.36,5.21-21.22-5.18-41.69-25.26-49.8-7.6-3.06-10.73-7.71-10.47-15.55.3-9.26.24-18.72.19-27.87,0-4.26-.05-8.52,0-12.77h7c0,4.24,0,8.48,0,12.72,0,9.22.11,18.75-.2,28.14-.16,4.94,1.15,6.83,6.1,8.83,23.4,9.44,35.5,33.27,29.44,58C408.49,386.86,388.3,403,366.21,403Z"/><line class="cls-2" x1="375.16" y1="166.74" x2="375.16" y2="184.5"/><line class="cls-2" x1="375.16" y1="202.94" x2="375.16" y2="219.34"/><path class="cls-3" d="M330.66,110.87s-28.36-9-55-7.64c-42.19,2.08-79.21,12.76-111.3,41.33-30.36,27-51.24,64.76-57.55,105a163.89,163.89,0,0,0-2,23.09c-.89,61.78,34,122.81,87.74,153.35s124,29.36,176.66-3"/><line class="cls-3" x1="277.57" y1="105.85" x2="277.57" y2="447.09"/><path class="cls-3" d="M255.63,105s-24.54,10.76-48,80.31c-5.23,15.5-11.35,72-11.35,91.2s5.68,60.91,11.78,85,23.13,59,38.84,74.09c7.22,6.93,18.71,11.53,18.71,11.53"/><path class="cls-3" d="M149.44,388.71c39.64-23.14,92.43-40,138.86-34.59"/><line class="cls-3" x1="104.19" y1="275.3" x2="306.66" y2="275.3"/><path class="cls-3" d="M147.83,163.28c12.22,3.43,24,10.16,36.09,14.29A336.74,336.74,0,0,0,224,188.51a333.9,333.9,0,0,0,82.66,6.65"/><path class="cls-3" d="M416,173.05s46.47,44.09,30.37,137.46"/><line class="cls-3" x1="434.3" y1="275.02" x2="446.34" y2="274.87"/><path class="cls-3" d="M320.63,420.47S305,439.2,291.44,447.09"/><circle class="cls-3" cx="365.13" cy="353.05" r="23.73"/><circle class="cls-3" cx="277.29" cy="277.29" r="273.79"/></g></g></svg>