<svg xmlns="http://www.w3.org/2000/svg" viewBox="0 0 60.6 60.6"><defs><style>.cls-1{fill:none;stroke:#f60;stroke-miterlimit:10;}</style></defs><title>Asset 10</title><g id="Layer_2" data-name="Layer 2"><g id="Layer_1-2" data-name="Layer 1"><circle class="cls-1" cx="30.25" cy="30.3" r="14.8"/><path class="cls-1" d="M30.25,42A11.7,11.7,0,1,1,42,30.3,11.71,11.71,0,0,1,30.25,42Z"/><path class="cls-1" d="M30.05,38.05v-2.5h-.4a8.38,8.38,0,0,1-3-1.1v-1.1a7.27,7.27,0,0,0,2.8,1.3,1.7,1.7,0,0,0,.7.1,2.48,2.48,0,0,0,.9-.1c1.5-.3,1.8-1.2,1.8-1.9,0-1.2-.9-1.7-1.8-2a10,10,0,0,0-1.1-.4,15.07,15.07,0,0,1-1.5-.6c-1.2-.6-1.9-1.4-1.9-2.3,0-1.5,1.1-2.6,3-2.8h.3v-2.1h.7v2.1H31a7.91,7.91,0,0,1,2.3.8v.9a7.39,7.39,0,0,0-2.2-1,2.77,2.77,0,0,0-.8-.1,2.49,2.49,0,0,0-.8.1c-1.1.2-1.9.9-1.9,1.8s.6,1.5,1.8,2l1.5.5c1.8.5,2.9,1.6,2.9,3a3,3,0,0,1-2.9,2.9h-.4V38h-.4Z"/><circle class="cls-1" cx="30.3" cy="30.3" r="29.8"/></g></g></svg>