<svg xmlns="http://www.w3.org/2000/svg" viewBox="0 0 60.6 60.6"><defs><style>.cls-1{fill:none;stroke:#f60;stroke-miterlimit:10;}</style></defs><title>Asset 3</title><g id="Layer_2" data-name="Layer 2"><g id="Layer_1-2" data-name="Layer 1"><path class="cls-1" d="M45,19.89l-4.2-4.2a1.93,1.93,0,0,0-2.8,0l-2.5,2.5,7,7,2.5-2.5A1.93,1.93,0,0,0,45,19.89Z"/><line class="cls-1" x1="18.55" y1="35.59" x2="25.15" y2="42.19"/><path class="cls-1" d="M16.55,42.29h0a2.62,2.62,0,0,1,1.9,1.9h0"/><path class="cls-1" d="M42.45,25.19,25.65,42a1.93,1.93,0,0,1-.9.5l-9.1,3a.5.5,0,0,1-.6-.6l3-9.1a4.05,4.05,0,0,1,.5-.9l16.8-16.8"/><line class="cls-1" x1="37.75" y1="20.59" x2="20.65" y2="37.69"/><line class="cls-1" x1="40.15" y1="22.89" x2="22.95" y2="39.99"/><circle class="cls-1" cx="30.3" cy="30.3" r="29.8"/></g></g></svg>